PathFileType	4	(X/Y/Z)	/Users/itak/Documents/Research/Walk-IL/dataset/trc/00156_00007.trc
DataRate	CameraRate	NumFrames	NumMarkers	Units	OrigDataRate	OrigDataStartFrame	OrigNumFrames
100.000000	100.000000	4	53	mm	100.000000	373	498
Frame#	Time	RPSI			LPSI			L3			STRN			T10			C7			CLAV			RBAK			LBAK			LSHO			LUPA			LAEL			LAOL			LWTS			LWPS			LFRA			LHPS			LHTS			RSHO			RUPA			RAEL			RAOL			RWTS			RWPS			RFRA			RIFD			RHTS			RHPS			RBHD			LFHD			RFHD			LBHD			LHIP			RHIP			RASI			LASI			LKNE			LTHI			LANK			LTIP			LTOE			LMT1			LMT5			LHEE			RKNE			RTHI			RANK			RTIP			RTOE			RMT1			RMT5			RHEE			LIFD			
		X1	Y1	Z1	X2	Y2	Z2	X3	Y3	Z3	X4	Y4	Z4	X5	Y5	Z5	X6	Y6	Z6	X7	Y7	Z7	X8	Y8	Z8	X9	Y9	Z9	X10	Y10	Z10	X11	Y11	Z11	X12	Y12	Z12	X13	Y13	Z13	X14	Y14	Z14	X15	Y15	Z15	X16	Y16	Z16	X17	Y17	Z17	X18	Y18	Z18	X19	Y19	Z19	X20	Y20	Z20	X21	Y21	Z21	X22	Y22	Z22	X23	Y23	Z23	X24	Y24	Z24	X25	Y25	Z25	X26	Y26	Z26	X27	Y27	Z27	X28	Y28	Z28	X29	Y29	Z29	X30	Y30	Z30	X31	Y31	Z31	X32	Y32	Z32	X33	Y33	Z33	X34	Y34	Z34	X35	Y35	Z35	X36	Y36	Z36	X37	Y37	Z37	X38	Y38	Z38	X39	Y39	Z39	X40	Y40	Z40	X41	Y41	Z41	X42	Y42	Z42	X43	Y43	Z43	X44	Y44	Z44	X45	Y45	Z45	X46	Y46	Z46	X47	Y47	Z47	X48	Y48	Z48	X49	Y49	Z49	X50	Y50	Z50	X51	Y51	Z51	X52	Y52	Z52	X53	Y53	Z53	

374	3.73	428.5871276855469	1104.81298828125	325.3348999023438	563.0620727539062	1119.173706054688	329.3857116699219	496.0543823242188	1146.493408203125	317.9388122558594	486.4762268066406	1357.671020507812	524.3912963867188	487.7960815429688	1294.666259765625	277.5122680664062	499.8948669433594	1588.734008789062	291.9361267089844	491.8775329589844	1490.05029296875	480.6509704589844	412.6230773925781	1401.648559570312	247.8847045898438	600.9991455078125	1568.05712890625	285.8416748046875	668.737548828125	1559.524658203125	372.2808227539062	745.9568481445312	1432.183349609375	356.9602661132812	787.435791015625	1218.736328125	384.9169616699219	727.7518310546875	1194.482177734375	323.7178649902344	775.218017578125	973.5926513671875	517.6221313476562	797.95947265625	939.3087768554688	438.24755859375	803.1885986328125	1105.868530273438	413.4653625488281	807.0155639648438	869.4188232421875	477.0768737792969	794.73974609375	889.1668701171875	542.6807250976562	319.1780090332031	1573.9189453125	348.6474609375	255.1494903564453	1499.637573242188	334.4104919433594	235.6836090087891	1205.513305664062	333.4786071777344	332.4060974121094	1204.18212890625	328.1126098632812	248.6959686279297	965.7962036132812	483.4589538574219	217.0412292480469	947.992919921875	408.4236145019531	219.3233184814453	1133.236206054688	358.5156860351562	267.4511413574219	771.6442260742188	509.0650024414062	243.7126007080078	857.6607055664062	513.5233764648438	214.185302734375	848.2431640625	446.3894958496094	420.7696838378906	1766.6279296875	335.4103393554688	566.6751708984375	1833.214721679688	487.2168884277344	438.4519653320312	1838.90625	499.1770629882812	554.6447143554688	1766.340087890625	316.33056640625	674.9173583984375	1046.423461914062	430.7173156738281	312.1132202148438	1010.648376464844	455.7582397460938	358.7564697265625	1091.382568359375	530.8729858398438	624.1076049804688	1109.297241210938	534.0059814453125	658.0792846679688	545.908935546875	518.811279296875	683.8681030273438	688.5831298828125	477.297119140625	646.3551635742188	31.50795936584473	500.1612243652344	683.9684448242188	289.6898498535156	466.4439697265625	569.4959106445312	42.02890014648438	725.5101928710938	544.944580078125	48.11390686035156	642.7437133789062	664.2977905273438	33.71945953369141	626.5198974609375	589.4749755859375	34.08944702148438	427.1294250488281	342.1825256347656	519.3912963867188	527.1953735351562	327.7666015625	801.2269287109375	503.3546447753906	292.2642822265625	175.5310211181641	116.6215286254883	316.9517211914062	417.0168151855469	433.6766662597656	373.0079956054688	44.97983169555664	267.1504516601562	416.6300964355469	78.23822021484375	215.4982299804688	297.7019348144531	66.00858306884766	190.7055206298828	328.4120788574219	231.2026519775391	82.38134765625	773.9180908203125	784.3128051757812	559.0458374023438	
375	3.74	431.0555114746094	1104.6982421875	329.3493041992188	565.639892578125	1119.428100585938	333.7828674316406	498.6904296875	1147.072998046875	322.2583312988281	488.4075927734375	1357.9052734375	529.0110473632812	491.1573791503906	1295.357421875	281.5807800292969	503.0660705566406	1589.402954101562	297.2051696777344	493.9068908691406	1490.4033203125	485.6353759765625	416.0396423339844	1402.3701171875	252.2690582275391	604.1961669921875	1568.766723632812	291.6909484863281	671.3270263671875	1560.149658203125	378.54150390625	748.8435668945312	1432.938110351562	364.3983764648438	790.6934204101562	1219.802612304688	394.7696838378906	731.8182983398438	1194.8662109375	333.0851440429688	777.7630615234375	975.5469360351562	529.1151123046875	801.5637817382812	940.8081665039062	450.2426452636719	806.4796142578125	1107.212890625	424.3710021972656	810.4368286132812	871.2337646484375	489.6609802246094	797.2817993164062	891.3692626953125	554.9822387695312	321.90625	1574.31640625	352.9526672363281	258.0903930664062	1500.040161132812	338.0977478027344	239.0476379394531	1205.830444335938	335.9702758789062	335.8225708007812	1204.702270507812	331.3362731933594	251.0431671142578	966.2258911132812	486.1217346191406	220.286376953125	948.2698974609375	410.9557800292969	222.5860137939453	1133.474609375	360.8333435058594	270.2197570800781	772.2981567382812	512.6116333007812	246.1673431396484	858.2779541015625	516.5397338867188	217.2911224365234	848.577392578125	449.1048583984375	423.6910705566406	1767.1123046875	340.7590637207031	569.2254638671875	1833.3505859375	493.0178833007812	440.9814453125	1839.340087890625	504.544677734375	557.544921875	1766.530395507812	322.0721740722656	677.2080688476562	1046.638793945312	435.5502014160156	314.1107482910156	1010.819763183594	459.766357421875	360.8155517578125	1091.743408203125	534.7296142578125	626.1819458007812	1109.494750976562	538.71435546875	658.92919921875	545.741943359375	521.3016357421875	685.0226440429688	688.552001953125	480.7987365722656	646.2550048828125	31.59604835510254	500.2044372558594	684.3650512695312	289.468017578125	467.6695251464844	569.3486938476562	41.80880737304688	725.788818359375	544.8609008789062	47.93446350097656	642.840087890625	664.2493896484375	33.77669143676758	626.5487060546875	589.3928833007812	34.16623306274414	427.1742553710938	344.9328002929688	520.6209716796875	536.753173828125	330.0145263671875	801.9860229492188	509.4239807128906	296.3434753417969	174.8251037597656	127.9390106201172	320.3296203613281	417.8652038574219	443.7152709960938	377.4072570800781	46.14481735229492	279.8548583984375	420.7086486816406	79.09893035888672	227.8662567138672	301.7723388671875	66.36932373046875	203.2267150878906	332.121826171875	230.3301544189453	92.92343902587891	776.731201171875	786.5610961914062	571.7708740234375	
376	3.75	433.4089050292969	1104.557006835938	333.19775390625	568.0835571289062	1119.61376953125	338.0501098632812	501.1721496582031	1147.61572265625	326.4575805664062	490.2899780273438	1358.1083984375	533.4934692382812	494.3935852050781	1296.0263671875	285.4981384277344	506.1219482421875	1590.043701171875	302.3719177246094	495.8812255859375	1490.728393554688	490.4935302734375	419.3591003417969	1403.084838867188	256.5306701660156	607.291259765625	1569.4580078125	297.4085693359375	673.8287963867188	1560.757446289062	384.6500244140625	751.6174926757812	1433.672607421875	371.6690063476562	793.7593383789062	1220.867431640625	404.4385070800781	735.6707763671875	1195.256103515625	342.3161315917969	780.119140625	977.5139770507812	540.4336547851562	804.9227294921875	942.3203125	462.0685119628906	809.5609741210938	1108.55615234375	435.0926208496094	813.6038818359375	873.059326171875	502.06591796875	799.621337890625	893.5818481445312	567.1004638671875	324.5403747558594	1574.680908203125	357.1996154785156	260.9417419433594	1500.427490234375	341.7453002929688	242.2865295410156	1206.134155273438	338.4745178222656	339.1016235351562	1205.203125	334.4675598144531	253.4331359863281	966.6806030273438	488.8671264648438	223.4312438964844	948.552001953125	413.6211853027344	225.7386322021484	1133.706298828125	363.2162780761719	273.0036926269531	772.9920654296875	516.280029296875	248.6590270996094	858.9345703125	519.6751708984375	220.3212432861328	848.9398803710938	451.9814453125	426.4656372070312	1767.544189453125	346.0394287109375	571.6837768554688	1833.4638671875	498.7049865722656	443.4134826660156	1839.703002929688	509.8207702636719	560.330322265625	1766.695922851562	327.7041015625	679.3622436523438	1046.7841796875	440.2563171386719	316.0540771484375	1010.979064941406	463.6465454101562	362.7640686035156	1092.09814453125	538.4347534179688	628.137939453125	1109.659423828125	543.2612915039062	659.6924438476562	545.5718383789062	523.8017578125	686.0775756835938	688.4953002929688	484.2744750976562	646.1388549804688	31.70057106018066	500.2550964355469	684.7237548828125	289.2627563476562	468.9964599609375	569.1607666015625	41.57442092895508	726.0806274414062	544.7660522460938	47.72956848144531	642.94287109375	664.190185546875	33.84563446044922	626.58544921875	589.3009643554688	34.25376510620117	427.2327575683594	347.6982116699219	521.8760986328125	546.1538696289062	332.1877136230469	802.780517578125	515.4282836914062	300.4588623046875	173.6884918212891	139.5068817138672	323.7083740234375	418.6370544433594	453.6883239746094	381.6773681640625	47.11952590942383	293.162353515625	424.65673828125	79.48311614990234	240.7214660644531	305.6997375488281	66.54443359375	216.3438720703125	336.0197448730469	228.8243713378906	103.6280899047852	779.3441772460938	788.8365478515625	584.3201904296875	
377	3.76	435.6451416015625	1104.403442382812	336.8971557617188	570.3921508789062	1119.729125976562	342.1983337402344	503.5064392089844	1148.101196289062	330.5394897460938	492.119873046875	1358.276733398438	537.8419189453125	497.4971618652344	1296.6650390625	289.2703552246094	509.072998046875	1590.649780273438	307.4366455078125	497.8003234863281	1491.017456054688	495.2268676757812	422.5891723632812	1403.7763671875	260.6701965332031	610.2926025390625	1570.122192382812	303.0024108886719	676.244873046875	1561.338745117188	390.6215515136719	754.2877807617188	1434.379760742188	378.7854309082031	796.6414184570312	1221.917846679688	413.9022216796875	739.314697265625	1195.643798828125	351.3826904296875	782.2780151367188	979.4937744140625	551.5654296875	808.0292358398438	943.8353881835938	473.7142028808594	812.4337768554688	1109.88623046875	445.6070556640625	816.5086669921875	874.8917236328125	514.2888793945312	801.751708984375	895.809814453125	579.0316162109375	327.0883178710938	1575.01025390625	361.3783874511719	263.7097778320312	1500.7939453125	345.3418579101562	245.3995971679688	1206.423706054688	341.0020751953125	342.2444152832031	1205.679809570312	337.5235290527344	255.8768157958984	967.1583251953125	491.7122802734375	226.4664916992188	948.8381958007812	416.4216003417969	228.7779846191406	1133.93212890625	365.6768798828125	275.7796630859375	773.7030639648438	520.02197265625	251.1822509765625	859.607666015625	522.9085083007812	223.2694549560547	849.324462890625	455.0111999511719	429.0955505371094	1767.923828125	351.2496948242188	574.053466796875	1833.55029296875	504.2765808105469	445.7572021484375	1839.989379882812	515.010009765625	563.005859375	1766.832275390625	333.2267761230469	681.3753662109375	1046.850830078125	444.8229370117188	317.9228820800781	1011.130249023438	467.3958435058594	364.6084594726562	1092.439819335938	542.002197265625	629.9874267578125	1109.788330078125	547.6537475585938	660.3934326171875	545.3926391601562	526.2816162109375	687.064697265625	688.4169921875	487.6937866210938	646.0136108398438	31.81546401977539	500.3116455078125	685.0608520507812	289.0824279785156	470.3865051269531	568.9354858398438	41.3390007019043	726.363525390625	544.6651611328125	47.51150131225586	643.0462646484375	664.1244506835938	33.92196655273438	626.6277465820312	589.2067260742188	34.35066986083984	427.30224609375	350.4818420410156	523.1436157226562	555.39892578125	334.2991333007812	803.6065673828125	521.3900146484375	304.626708984375	172.1816101074219	151.2648010253906	327.0847778320312	419.3419799804688	463.5767517089844	385.6076965332031	47.90182876586914	307.0981140136719	428.3348999023438	79.39005279541016	254.1309814453125	309.3402099609375	66.63394927978516	230.0166778564453	340.1578063964844	226.7192077636719	114.4466781616211	781.7467041015625	791.14599609375	596.7059326171875	
